# xmcd CD database file
#
# Track frame offsets:
#	150
#	2582
#	22385
#	42374
#	58057
#	75451
#	93148
#	110758
#
# Disc length: 1729 seconds
#
# Revision: 0
# Processed by: cddbd v1.5.2PL0 Copyright (c) Steve Scherf et al.
# Submitted via: CDex 1.70beta2
#
DISCID=5e06bf08
DTITLE=光収容の倉庫 - 君が見た地獄
DYEAR=2008
DGENRE=東方アレンジ
TTITLE0=淵に立つ - 明日ハレの日、ケの昨日
TTITLE1=揺らぐ速度 - 明日ハレの日、ケの昨日
TTITLE2=君が見た地獄 - 死体旅行
TTITLE3=晴天の虹 - フォールオブフォール
TTITLE4=五節必殺之六間 - 旧地獄街道を行く
TTITLE5=君が見た幻想郷 - 神々が恋した幻想郷 
TTITLE6=沈みゆく地面 - 運命のダークサイド
TTITLE7=心の最前線 - ハートフェルトファンシー
EXTD=YEAR: 2008
EXTT0=
EXTT1=
EXTT2=
EXTT3=
EXTT4=
EXTT5=
EXTT6=
EXTT7=
PLAYORDER=
